<?xml version="1.0" standalone="no"?>
<!DOCTYPE svg PUBLIC "-//W3C//DTD SVG 20010904//EN"
 "http://www.w3.org/TR/2001/REC-SVG-20010904/DTD/svg10.dtd">
<svg version="1.0" xmlns="http://www.w3.org/2000/svg"
 width="980.000000pt" height="900.000000pt" viewBox="0 0 980.000000 900.000000"
 preserveAspectRatio="xMidYMid meet">

<g transform="translate(0.000000,900.000000) scale(0.100000,-0.100000)"
fill="#000000" stroke="none">
<path d="M5015 8984 c-119 -10 -339 -36 -446 -54 -1390 -235 -2608 -1143
-3258 -2430 -78 -154 -161 -339 -161 -359 0 -8 140 -11 445 -11 l444 0 65 128
c432 848 1243 1506 2192 1776 618 176 1291 187 1919 30 1297 -324 2318 -1338
2648 -2629 78 -304 106 -514 114 -840 10 -425 -32 -753 -144 -1140 -107 -369
-301 -769 -530 -1092 -481 -679 -1185 -1173 -1998 -1401 -300 -85 -570 -123
-920 -129 -376 -7 -652 23 -985 107 -992 251 -1831 909 -2293 1798 l-69 132
-444 0 c-318 0 -444 -3 -444 -11 0 -18 88 -216 157 -351 450 -888 1208 -1630
2108 -2063 447 -216 913 -350 1425 -412 206 -25 743 -25 955 0 548 65 999 195
1470 421 483 233 882 520 1261 908 709 727 1134 1636 1251 2670 24 214 24 722
0 936 -117 1035 -542 1943 -1251 2670 -734 752 -1657 1202 -2721 1327 -134 16
-667 28 -790 19z"/>
<path d="M4492 6947 l-284 -284 878 -876 878 -877 -2982 0 -2982 0 0 -410 0
-410 2982 0 2983 0 -878 -878 -877 -877 285 -285 285 -285 1368 1368 1367
1367 -1365 1365 c-751 751 -1367 1365 -1370 1365 -3 0 -133 -128 -288 -283z"/>
</g>
</svg>
