<?xml version="1.0" standalone="no"?>
<!DOCTYPE svg PUBLIC "-//W3C//DTD SVG 20010904//EN"
 "http://www.w3.org/TR/2001/REC-SVG-20010904/DTD/svg10.dtd">
<svg version="1.0" xmlns="http://www.w3.org/2000/svg"
 width="512.000000pt" height="512.000000pt" viewBox="0 0 512.000000 512.000000"
 preserveAspectRatio="xMidYMid meet">

<g transform="translate(0.000000,512.000000) scale(0.100000,-0.100000)"
fill="#000000" stroke="none">
<path d="M2509 4767 c-8 -7 -30 -34 -49 -62 -191 -283 -503 -639 -944 -1080
-373 -372 -658 -632 -1170 -1068 -108 -92 -201 -179 -206 -193 -14 -35 11 -91
47 -105 39 -15 71 -3 131 48 29 25 54 44 56 42 2 -2 13 -34 25 -71 l22 -66
-111 -654 c-61 -359 -113 -659 -116 -666 -2 -9 -15 -2 -38 22 -26 29 -41 36
-70 36 -46 0 -86 -36 -86 -78 0 -27 66 -131 195 -307 l37 -50 -44 -3 c-54 -3
-83 -17 -97 -49 -18 -39 -13 -63 18 -94 l29 -29 2422 0 2422 0 29 29 c31 31
36 55 18 94 -14 31 -43 46 -97 49 l-44 3 29 40 c212 291 227 322 178 370 -39
40 -89 34 -134 -14 l-36 -39 -113 671 -113 672 23 68 23 68 63 -51 c65 -51 87
-58 125 -38 31 16 46 39 47 70 0 52 22 30 -335 333 -384 325 -697 615 -1070
989 -403 404 -608 634 -821 921 -146 196 -154 205 -195 205 -19 0 -41 -6 -50
-13z m-124 -1261 c-447 -1145 -845 -1845 -1148 -2016 -61 -34 -77 -54 -77 -94
0 -41 10 -54 74 -100 76 -54 167 -150 206 -219 60 -104 82 -196 88 -364 2 -84
2 -164 -2 -178 l-6 -25 -335 0 -335 0 0 138 c0 487 -95 1056 -276 1644 -30 98
-54 180 -54 182 0 2 73 67 163 144 689 591 1305 1205 1681 1673 l101 126 3
-346 2 -347 -85 -218z m362 796 c372 -472 1039 -1132 1801 -1782 l53 -46 -55
-179 c-174 -571 -259 -1055 -273 -1563 l-6 -222 -336 2 -336 3 0 170 c0 150 3
179 24 245 46 150 135 272 266 366 67 47 75 59 75 105 0 34 -19 54 -105 109
-291 187 -631 779 -1074 1870 l-136 335 -3 353 c-2 193 1 352 5 351 4 0 49
-53 100 -117z m-148 -1162 c145 -620 437 -1588 722 -2398 44 -123 79 -226 79
-228 0 -2 -378 -4 -840 -4 -462 0 -840 2 -840 4 0 2 36 105 79 228 265 752
528 1622 694 2295 34 139 65 249 68 245 4 -4 21 -68 38 -142z m-445 -710
c-158 -565 -465 -1516 -477 -1480 -3 8 -11 33 -18 55 -33 113 -140 281 -219
347 l-38 32 92 92 c198 195 410 527 631 986 44 92 81 166 82 164 1 -1 -23 -89
-53 -196z m1012 -303 c161 -290 318 -513 460 -652 l92 -91 -38 -31 c-79 -67
-186 -235 -219 -348 -7 -22 -15 -47 -18 -55 -12 -37 -298 844 -473 1457 -33
117 -60 216 -60 220 0 5 45 -83 100 -195 55 -112 125 -249 156 -305z m-2602
-477 c68 -328 102 -611 113 -937 l6 -203 -119 0 -120 0 -56 80 -55 81 63 367
c34 202 77 456 96 564 18 109 35 192 39 185 4 -6 18 -68 33 -137z m4126 -420
c49 -294 90 -542 90 -552 0 -10 -23 -52 -52 -93 l-52 -75 -118 0 -118 0 0 116
c0 136 15 359 36 534 24 205 89 569 111 620 8 20 -1 70 103 -550z"/>
</g>
</svg>
