<?xml version="1.0" standalone="no"?>
<!DOCTYPE svg PUBLIC "-//W3C//DTD SVG 20010904//EN"
 "http://www.w3.org/TR/2001/REC-SVG-20010904/DTD/svg10.dtd">
<svg version="1.0" xmlns="http://www.w3.org/2000/svg"
 width="512.000000pt" height="512.000000pt" viewBox="0 0 512.000000 512.000000"
 preserveAspectRatio="xMidYMid meet">

<g transform="translate(0.000000,512.000000) scale(0.100000,-0.100000)"
fill="#000000" stroke="none">
<path d="M3085 5009 c-1070 -193 -1993 -968 -2280 -1913 -76 -253 -99 -428
-93 -714 5 -228 9 -245 63 -268 35 -14 82 -6 96 18 4 6 4 103 2 217 -6 229 4
351 43 529 96 431 323 832 664 1172 305 304 685 543 1095 687 95 33 356 105
362 100 1 -2 -4 -27 -12 -57 -76 -289 -13 -626 167 -888 111 -161 236 -260
419 -333 348 -138 562 -321 625 -534 24 -84 22 -201 -6 -290 -28 -88 -49 -130
-116 -229 -57 -83 -65 -116 -38 -154 45 -65 91 -50 162 56 116 174 172 338
174 507 1 204 -67 364 -219 512 -87 84 -183 142 -338 203 -298 116 -347 143
-449 250 -254 267 -326 693 -166 988 42 78 40 111 -11 137 -31 16 -68 17 -144
4z"/>
<path d="M2158 3286 c-151 -53 -337 -197 -448 -347 -143 -192 -216 -455 -190
-686 13 -119 45 -243 74 -285 38 -57 106 -58 142 -3 16 25 16 30 -9 108 -101
312 -26 630 202 858 78 78 213 179 239 179 7 0 8 -11 1 -32 -14 -51 -11 -217
6 -283 49 -193 209 -372 388 -435 70 -25 191 -26 268 -4 175 51 310 206 339
390 6 38 13 70 15 72 2 2 23 -5 47 -16 57 -25 105 -75 137 -142 23 -49 26 -67
26 -170 0 -108 -2 -119 -31 -180 -17 -36 -45 -82 -63 -104 -19 -23 -31 -50
-31 -68 0 -38 40 -78 79 -78 39 0 107 77 155 174 160 330 45 678 -246 746 -24
5 -82 10 -129 10 -73 0 -90 -3 -114 -21 -23 -19 -26 -27 -22 -63 3 -23 10 -60
17 -84 25 -86 -29 -173 -148 -235 -125 -66 -260 -84 -339 -46 -83 40 -168 165
-198 291 -29 125 -14 227 46 317 45 68 49 102 14 136 -21 22 -33 25 -92 25
-45 0 -90 -8 -135 -24z"/>
<path d="M4315 2236 c-49 -14 -169 -56 -265 -94 -96 -39 -278 -107 -404 -152
-126 -45 -434 -160 -685 -256 -394 -151 -458 -173 -480 -164 -58 23 -552 142
-771 185 -129 25 -320 64 -425 86 -257 53 -340 67 -472 80 -257 24 -487 -38
-613 -163 -138 -139 -142 -346 -9 -479 127 -127 375 -217 784 -284 38 -6 22
-13 -265 -121 -168 -63 -332 -122 -365 -130 -124 -32 -212 -103 -263 -212 -22
-46 -27 -71 -26 -127 3 -228 209 -392 443 -354 36 5 68 12 73 15 4 3 358 129
785 280 l778 274 130 -20 c401 -63 940 -182 1780 -391 189 -47 259 -69 330
-104 161 -79 309 -83 459 -11 102 50 149 94 193 184 36 71 38 82 38 166 0 78
-4 100 -27 149 -15 32 -41 75 -57 95 -55 70 -256 164 -626 292 -162 56 -550
169 -653 190 -35 7 -59 16 -55 20 15 13 315 131 484 191 531 187 689 312 690
544 1 98 -28 171 -94 238 -74 75 -112 91 -227 94 -75 2 -114 -2 -185 -21z
m219 -185 c57 -33 101 -75 110 -108 24 -79 -128 -210 -403 -348 -170 -85 -286
-132 -651 -265 -162 -59 -362 -133 -445 -165 -560 -214 -1323 -489 -2146 -775
l-196 -68 -6 70 c-7 86 -48 178 -108 243 -23 25 -40 47 -37 50 2 2 152 60 334
129 181 68 529 201 774 296 1011 390 1407 538 1980 740 168 59 350 124 405
145 93 34 276 83 319 84 10 1 42 -12 70 -28z m-3694 -296 c164 -27 906 -173
1115 -221 272 -61 295 -66 295 -73 0 -3 -213 -86 -473 -183 l-472 -177 -190
38 c-236 49 -324 71 -455 117 -280 97 -402 209 -369 340 20 78 92 141 186 163
62 15 261 12 363 -4z m2925 -769 c404 -109 756 -219 754 -234 0 -4 -27 -26
-59 -49 -33 -23 -72 -62 -87 -85 -15 -24 -40 -58 -56 -77 -35 -41 -87 -147
-87 -178 0 -12 -4 -24 -8 -27 -5 -3 -87 15 -183 40 -413 108 -1101 265 -1449
330 -96 18 -138 29 -125 34 280 105 718 270 805 304 63 25 122 43 130 41 8 -2
173 -47 365 -99z m1047 -369 c127 -70 139 -268 21 -350 -72 -50 -111 -61 -208
-60 -172 1 -273 81 -224 176 7 12 40 52 75 89 35 36 64 72 64 80 0 8 10 24 23
35 70 64 167 76 249 30z m-4289 -53 c53 -35 94 -96 108 -159 13 -60 8 -90 -22
-129 -68 -87 -249 -94 -338 -13 -33 31 -61 95 -61 142 0 132 202 235 313 159z"/>
</g>
</svg>
