<?xml version="1.0" standalone="no"?>
<!DOCTYPE svg PUBLIC "-//W3C//DTD SVG 20010904//EN"
 "http://www.w3.org/TR/2001/REC-SVG-20010904/DTD/svg10.dtd">
<svg version="1.0" xmlns="http://www.w3.org/2000/svg"
 width="892.000000pt" height="980.000000pt" viewBox="0 0 892.000000 980.000000"
 preserveAspectRatio="xMidYMid meet">

<g transform="translate(0.000000,980.000000) scale(0.100000,-0.100000)"
fill="#000000" stroke="none">
<path d="M4075 9788 c-98 -34 -152 -136 -125 -236 12 -48 66 -113 121 -148 54
-34 73 -90 67 -201 -3 -53 -14 -114 -27 -153 -36 -106 -123 -274 -232 -450
-236 -380 -337 -594 -384 -815 -19 -92 -19 -255 0 -330 42 -160 171 -297 340
-360 203 -77 336 -13 351 168 4 51 2 68 -15 94 -27 43 -90 87 -160 113 -81 30
-100 46 -122 96 -25 60 -24 94 6 198 33 115 82 209 235 456 164 265 209 344
269 471 101 215 143 379 144 564 2 201 -35 297 -160 416 -116 110 -217 149
-308 117z"/>
<path d="M5043 8750 c-155 -41 -200 -88 -159 -169 8 -15 42 -60 75 -100 34
-40 61 -77 61 -82 0 -5 -11 -7 -24 -3 -21 5 -24 2 -30 -43 -8 -63 -35 -118
-140 -292 -112 -185 -139 -239 -184 -369 -33 -99 -36 -116 -37 -227 0 -112 2
-124 29 -182 53 -115 184 -210 278 -201 60 6 167 58 218 107 71 68 47 125 -94
221 -36 25 -66 50 -66 56 0 17 81 170 159 299 112 185 167 291 203 395 31 90
33 103 33 235 0 130 -2 144 -26 195 -43 93 -145 181 -206 179 -10 0 -50 -9
-90 -19z"/>
<path d="M8344 7750 c-23 -9 -118 -114 -229 -253 -82 -103 -72 -101 -221 -37
-211 90 -396 121 -603 101 -273 -26 -438 -95 -669 -280 -180 -144 -355 -254
-610 -381 -252 -125 -445 -195 -740 -269 -265 -67 -255 -66 -752 -66 -389 0
-472 3 -570 18 -147 23 -304 62 -505 127 -400 129 -689 269 -1190 576 -249
152 -302 181 -394 215 -125 45 -200 59 -346 66 -260 10 -492 -57 -725 -210
l-85 -57 -130 135 c-84 87 -140 137 -158 141 -15 3 -57 4 -92 2 -58 -3 -69 -8
-101 -38 -91 -88 -103 -189 -34 -291 16 -24 30 -47 30 -50 0 -4 -20 -10 -44
-13 -25 -4 -63 -20 -85 -36 -119 -86 -104 -257 28 -342 42 -26 52 -28 146 -28
l102 0 -1 -242 c-1 -224 1 -250 22 -330 67 -253 190 -451 373 -602 384 -315
1404 -846 1904 -991 108 -31 218 -49 251 -41 34 9 99 69 118 110 18 39 21 121
5 163 -14 37 -56 81 -99 103 -19 10 -96 39 -170 65 -480 169 -990 417 -1459
708 -267 166 -440 324 -505 460 -47 98 -60 174 -53 310 9 202 61 310 227 478
170 171 273 216 480 206 169 -8 256 -41 487 -188 235 -149 341 -210 548 -314
458 -232 882 -388 1261 -464 287 -57 377 -65 744 -64 334 1 495 10 665 39 236
40 607 153 850 259 327 142 600 307 915 553 115 90 208 143 284 161 64 16 278
16 353 1 121 -25 223 -91 347 -228 116 -128 166 -229 187 -375 21 -152 -9
-294 -92 -434 -134 -226 -743 -658 -1264 -897 -200 -92 -320 -139 -611 -241
-332 -116 -339 -120 -369 -204 -30 -85 -15 -149 50 -213 72 -71 148 -74 347
-14 466 142 1027 409 1473 703 491 324 711 561 809 871 53 167 59 422 16 632
-12 58 -23 110 -23 115 -1 6 63 12 168 15 181 5 206 11 251 62 42 46 56 87 52
153 -5 75 -34 120 -106 162 -44 26 -56 28 -179 31 l-133 4 46 59 c125 163 123
307 -5 372 -57 28 -141 36 -187 17z"/>
<path d="M3542 5340 c-69 -11 -124 -62 -144 -136 -16 -56 -23 -1569 -9 -1779
13 -190 28 -260 80 -371 126 -269 390 -501 656 -578 l80 -23 6 -1134 c4 -676
11 -1151 17 -1176 14 -62 39 -91 107 -123 79 -38 143 -21 230 61 l55 52 2
1160 3 1159 90 27 c149 45 263 113 386 229 129 121 227 268 299 451 l40 101 0
988 0 989 -55 44 c-118 94 -205 88 -322 -24 l-33 -31 0 -406 c0 -224 -3 -475
-7 -558 l-6 -152 -197 0 -197 0 -6 533 c-3 293 -10 549 -16 571 -11 46 -53 93
-100 113 -18 8 -62 14 -98 14 -70 0 -87 -7 -154 -68 l-39 -35 0 -564 0 -564
-210 0 -210 0 0 559 0 558 -54 51 c-63 60 -111 75 -194 62z m1482 -1812 c-8
-233 -18 -291 -61 -378 -55 -109 -127 -181 -231 -233 l-85 -42 -231 0 -231 0
-87 44 c-152 75 -235 179 -279 349 -17 66 -39 279 -39 380 l0 32 625 0 625 0
-6 -152z"/>
</g>
</svg>
