<?xml version="1.0" standalone="no"?>
<!DOCTYPE svg PUBLIC "-//W3C//DTD SVG 20010904//EN"
 "http://www.w3.org/TR/2001/REC-SVG-20010904/DTD/svg10.dtd">
<svg version="1.0" xmlns="http://www.w3.org/2000/svg"
 width="200.000000pt" height="200.000000pt" viewBox="0 0 200.000000 200.000000"
 preserveAspectRatio="xMidYMid meet">

<g transform="translate(0.000000,200.000000) scale(0.100000,-0.100000)"
fill="#000000" stroke="none">
<path d="M1140 1595 l-104 -104 23 -24 22 -25 -99 -124 c-113 -141 -155 -180
-285 -270 -233 -159 -402 -321 -463 -442 -53 -106 -45 -148 46 -229 75 -68
161 -92 219 -63 34 18 47 47 56 122 9 71 36 139 73 177 15 16 97 79 182 140
175 126 283 225 403 370 l82 99 22 -26 c12 -15 32 -59 43 -99 48 -163 41 -152
96 -151 170 5 333 169 338 339 l1 49 -107 32 c-58 17 -120 42 -138 54 l-31 22
20 22 c12 12 21 29 21 37 0 19 -181 199 -200 199 -7 0 -24 -10 -37 -22 l-23
-21 -23 21 c-13 12 -25 22 -28 22 -2 0 -51 -47 -109 -105z m363 -107 c-16 -18
-20 -15 -95 59 -73 73 -77 78 -61 95 16 18 20 15 95 -59 73 -73 77 -78 61 -95z
m-108 23 l141 -139 99 -31 c55 -17 105 -31 112 -31 18 0 16 -17 -8 -96 -18
-57 -31 -77 -83 -130 -53 -52 -73 -65 -130 -83 -38 -12 -73 -21 -80 -21 -7 0
-17 18 -23 40 -10 38 -9 40 12 40 49 0 120 34 167 81 26 27 48 55 48 64 0 9
-23 -8 -57 -43 -39 -39 -71 -62 -99 -70 -53 -15 -84 -15 -88 1 -31 98 -42 114
-180 255 l-140 142 79 80 c44 44 82 80 84 80 3 0 68 -63 146 -139z m-132 -265
c-20 -33 -230 -269 -260 -292 l-35 -27 -76 76 -76 76 60 58 c33 32 86 92 119
133 32 41 72 90 89 108 l30 32 78 -77 c42 -42 74 -81 71 -87z m-328 -351 c-11
-8 -78 -56 -149 -107 -212 -153 -247 -196 -267 -334 -13 -84 -32 -114 -74
-114 -80 0 -205 102 -205 167 0 11 14 48 31 82 55 109 223 271 442 423 l82 57
80 -79 c76 -76 79 -80 60 -95z"/>
<path d="M1660 1279 c0 -11 5 -17 10 -14 6 3 10 13 10 21 0 8 -4 14 -10 14 -5
0 -10 -9 -10 -21z"/>
<path d="M360 520 c-11 -11 -20 -29 -20 -40 0 -11 9 -29 20 -40 11 -11 29 -20
40 -20 26 0 60 34 60 60 0 11 -9 29 -20 40 -11 11 -29 20 -40 20 -11 0 -29 -9
-40 -20z m56 -31 c10 -17 -13 -36 -27 -22 -12 12 -4 33 11 33 5 0 12 -5 16
-11z"/>
</g>
</svg>
