<?xml version="1.0" standalone="no"?>
<!DOCTYPE svg PUBLIC "-//W3C//DTD SVG 20010904//EN"
 "http://www.w3.org/TR/2001/REC-SVG-20010904/DTD/svg10.dtd">
<svg version="1.0" xmlns="http://www.w3.org/2000/svg"
 width="512.000000pt" height="512.000000pt" viewBox="0 0 512.000000 512.000000"
 preserveAspectRatio="xMidYMid meet">

<g transform="translate(0.000000,512.000000) scale(0.100000,-0.100000)"
fill="#000000" stroke="none">
<path d="M3605 4750 c-21 -23 -44 -142 -44 -230 -2 -109 34 -170 99 -170 60 0
67 16 74 180 4 80 7 156 6 170 0 58 -96 93 -135 50z"/>
<path d="M2866 4474 c-14 -15 -26 -37 -26 -50 0 -31 128 -252 153 -265 44 -24
117 23 117 75 0 30 -108 229 -139 254 -26 21 -76 14 -105 -14z"/>
<path d="M4445 4323 c-72 -47 -135 -93 -142 -102 -22 -28 -16 -89 12 -116 13
-14 32 -25 42 -25 22 0 291 178 304 201 27 51 -11 129 -63 129 -13 0 -82 -39
-153 -87z"/>
<path d="M3577 4099 c-187 -25 -355 -129 -430 -268 -61 -112 -84 -293 -52
-416 47 -180 190 -322 371 -369 34 -9 101 -16 149 -16 382 0 640 333 546 702
-48 189 -159 316 -306 352 -81 20 -196 26 -278 15z m207 -198 c37 -6 75 -21
99 -38 114 -81 162 -318 94 -467 -35 -75 -111 -150 -195 -189 -61 -29 -76 -32
-162 -32 -85 0 -101 3 -155 29 -77 38 -153 114 -191 191 -26 55 -29 69 -29
165 0 92 3 111 25 153 13 26 45 68 71 92 111 104 236 131 443 96z"/>
<path d="M2457 3668 c-41 -32 -39 -115 3 -138 11 -6 107 -10 219 -10 l200 0
20 26 c27 34 27 74 0 108 l-20 26 -203 0 c-146 0 -207 -3 -219 -12z"/>
<path d="M4457 3558 c-22 -18 -39 -66 -31 -92 13 -44 34 -56 98 -56 34 0 98
-5 144 -12 80 -11 83 -10 107 12 19 18 25 34 25 65 0 53 -20 72 -90 85 -76 14
-232 13 -253 -2z"/>
<path d="M1515 3461 c-40 -25 -311 -302 -406 -416 -390 -464 -704 -1055 -880
-1654 -21 -74 -39 -144 -39 -157 0 -53 88 -86 122 -46 9 9 32 78 53 152 44
160 107 338 177 499 57 132 158 335 163 330 1 -2 19 -45 38 -95 87 -225 196
-374 276 -374 41 0 181 104 295 218 l109 110 33 -127 c62 -240 142 -440 228
-570 47 -71 136 -161 158 -161 21 1 94 36 140 68 72 50 178 150 323 305 76 81
142 144 146 140 5 -5 56 -111 113 -237 l105 -229 -68 -76 c-38 -42 -81 -87
-96 -101 -57 -52 -125 -142 -125 -165 0 -13 12 -37 26 -54 50 -60 52 -59 362
254 155 156 290 289 301 294 16 9 26 -9 100 -173 46 -100 91 -188 102 -194 39
-25 79 -14 173 47 50 32 102 64 115 71 26 13 27 12 58 -45 54 -101 291 -401
359 -454 53 -41 91 -24 156 72 23 34 84 118 137 186 88 115 96 123 109 105 7
-10 107 -190 222 -399 114 -209 218 -392 230 -407 30 -38 72 -37 111 1 16 16
29 39 29 51 0 35 -438 873 -588 1125 -228 382 -549 778 -630 778 -22 0 -60
-25 -157 -103 -176 -144 -425 -363 -580 -510 -72 -68 -146 -139 -165 -157
l-36 -33 -54 118 c-142 309 -395 801 -563 1097 -189 332 -547 890 -591 920
-28 20 -55 19 -91 -4z m102 -301 c151 -227 321 -505 467 -762 122 -217 297
-552 293 -562 -3 -6 -61 -77 -129 -157 -250 -291 -345 -326 -453 -164 -68 103
-112 224 -185 508 -53 205 -64 227 -120 227 -15 0 -35 -9 -46 -21 -10 -12 -71
-66 -135 -119 -64 -54 -135 -122 -160 -152 -45 -54 -59 -68 -71 -68 -4 0 -32
26 -63 58 -63 65 -117 167 -166 312 l-33 95 69 110 c94 151 192 288 306 430
131 162 340 389 349 378 4 -4 39 -55 77 -113z m2183 -1278 c92 -42 215 -207
365 -492 48 -91 98 -185 112 -208 l25 -44 -94 -96 c-52 -54 -116 -126 -143
-161 l-50 -63 -33 38 c-64 73 -151 192 -232 315 -80 123 -105 148 -147 149
-12 0 -71 -34 -132 -75 l-110 -75 -19 37 c-27 53 -122 270 -122 277 0 4 30 35
67 69 38 34 132 124 210 199 89 86 152 140 170 144 15 3 33 7 38 9 15 4 56 -5
95 -23z"/>
<path d="M2894 3002 c-88 -53 -282 -195 -301 -220 -22 -27 -15 -59 18 -86 46
-39 77 -34 150 25 35 29 111 83 169 120 156 102 150 97 150 130 0 39 -39 79
-78 79 -17 0 -62 -20 -108 -48z"/>
<path d="M4133 2945 c-38 -16 -56 -60 -39 -97 16 -38 277 -344 303 -357 44
-21 90 12 100 72 5 35 -17 65 -248 335 -44 52 -75 64 -116 47z"/>
<path d="M3567 2880 c-24 -19 -25 -26 -31 -157 -3 -76 -9 -175 -12 -220 -4
-73 -3 -84 16 -103 27 -27 93 -27 119 -1 22 22 30 92 34 309 l2 144 -28 24
c-34 29 -66 31 -100 4z"/>
</g>
</svg>
