<?xml version="1.0" standalone="no"?>
<!DOCTYPE svg PUBLIC "-//W3C//DTD SVG 20010904//EN"
 "http://www.w3.org/TR/2001/REC-SVG-20010904/DTD/svg10.dtd">
<svg version="1.0" xmlns="http://www.w3.org/2000/svg"
 width="980.000000pt" height="982.000000pt" viewBox="0 0 980.000000 982.000000"
 preserveAspectRatio="xMidYMid meet">

<g transform="translate(0.000000,982.000000) scale(0.100000,-0.100000)"
fill="#000000" stroke="none">
<path d="M3060 9788 c-67 -36 -103 -94 -108 -171 -3 -52 0 -67 20 -96 54 -79
78 -85 379 -101 631 -31 786 -45 1004 -90 161 -33 431 -114 548 -164 l38 -17
-18 -29 c-10 -15 -88 -110 -173 -210 -462 -544 -770 -1001 -1060 -1575 -377
-746 -620 -1510 -800 -2520 -22 -126 -43 -245 -46 -262 -3 -24 -13 -37 -35
-48 -16 -9 -136 -44 -267 -80 -303 -81 -497 -141 -697 -217 -593 -224 -1051
-502 -1381 -840 -227 -232 -355 -447 -427 -718 -27 -105 -30 -130 -31 -280 -1
-222 31 -368 124 -565 123 -258 394 -554 716 -782 787 -557 2077 -923 3534
-1003 238 -13 826 -13 1056 0 1597 90 2947 510 3714 1154 232 194 427 431 520
628 98 209 138 400 127 597 -17 275 -83 478 -229 694 -455 677 -1520 1214
-2903 1462 -110 20 -229 42 -265 49 l-65 13 -3 54 c-4 59 4 151 49 553 130
1174 397 2280 743 3071 121 276 302 596 395 697 67 73 164 122 396 201 439
150 675 190 1265 217 269 13 488 30 516 41 52 19 104 111 104 181 0 61 -68
150 -126 164 -50 13 -814 -4 -964 -20 -402 -46 -718 -126 -1135 -291 -246 -97
-297 -139 -448 -366 -166 -251 -282 -471 -412 -779 -375 -894 -657 -2198 -780
-3610 -31 -365 -59 -1347 -53 -1890 l3 -325 28 -57 c33 -68 75 -97 149 -105
64 -6 109 10 166 61 l40 36 3 314 c2 173 7 317 11 321 9 9 126 -27 343 -107
240 -89 318 -125 421 -193 146 -98 220 -204 196 -283 -42 -139 -367 -336 -743
-452 -239 -73 -682 -173 -930 -210 -42 -6 -229 -24 -415 -39 l-338 -28 -43
-49 c-61 -70 -69 -95 -55 -163 22 -106 73 -146 195 -156 226 -19 850 56 1260
151 775 179 1255 435 1415 753 l37 75 0 156 0 157 -40 78 c-48 96 -166 223
-282 307 -197 142 -526 281 -896 379 l-129 34 4 147 c1 80 6 149 9 153 10 10
461 -109 642 -169 567 -190 988 -457 1187 -753 76 -113 92 -166 98 -316 4
-113 2 -135 -18 -198 -35 -109 -106 -208 -254 -355 -147 -146 -259 -226 -460
-329 -571 -290 -1374 -480 -2187 -516 -269 -12 -814 -6 -1024 11 -457 38 -970
137 -1370 267 -585 190 -935 399 -1177 702 -129 162 -176 322 -144 499 51 291
353 575 872 823 176 84 264 115 275 98 4 -7 5 -17 3 -23 -2 -6 -8 -57 -12
-113 -5 -56 -15 -109 -22 -117 -6 -9 -64 -45 -129 -82 -319 -183 -481 -339
-544 -523 -28 -80 -33 -210 -13 -291 53 -211 205 -380 451 -500 137 -68 248
-102 398 -124 286 -43 407 9 407 174 0 133 -47 162 -340 215 -267 49 -449 147
-515 278 -40 82 -31 127 42 208 57 63 199 169 226 169 2 0 7 -36 10 -80 9
-138 60 -208 158 -218 93 -9 172 31 198 100 19 50 30 144 41 348 63 1184 208
2105 466 2957 329 1090 818 1954 1628 2877 188 215 272 318 282 348 12 38 7
112 -10 146 -35 67 -163 136 -436 234 -513 184 -926 252 -1600 264 l-315 6
-45 -24z m3461 -5602 c1277 -227 2261 -689 2680 -1259 84 -114 164 -281 185
-386 23 -115 15 -350 -14 -431 -112 -316 -401 -625 -824 -881 -523 -317 -1229
-556 -2063 -699 -902 -154 -1993 -167 -2940 -34 -1061 149 -1972 471 -2538
898 -264 198 -417 376 -546 633 l-51 103 0 231 0 231 67 132 c38 72 94 165
125 207 65 86 275 293 395 389 251 200 727 437 1198 597 122 41 544 163 565
163 20 0 9 -49 -14 -67 -13 -11 -100 -48 -193 -83 -545 -207 -983 -515 -1203
-848 -118 -178 -170 -341 -170 -537 0 -298 130 -568 397 -826 574 -554 1734
-916 3070 -958 1268 -40 2464 214 3223 684 377 234 620 516 716 830 26 83 28
103 28 255 0 151 -3 173 -28 255 -34 112 -89 228 -158 331 -61 91 -230 269
-338 357 -334 270 -938 531 -1544 668 -172 39 -236 57 -236 69 0 13 -7 14 211
-24z"/>
<path d="M6597 9389 c-51 -27 -139 -140 -312 -399 -848 -1274 -1257 -2684
-1439 -4970 -48 -603 -76 -1140 -76 -1485 0 -209 1 -223 23 -265 27 -54 58
-77 117 -88 111 -20 206 39 223 138 10 55 25 297 42 650 87 1844 275 3091 620
4124 224 673 504 1230 916 1828 71 102 136 202 144 222 21 51 19 144 -4 182
-26 42 -111 84 -170 84 -26 -1 -63 -10 -84 -21z"/>
<path d="M5869 9327 c-127 -86 -487 -558 -746 -977 -255 -412 -500 -915 -676
-1390 -357 -963 -565 -1963 -686 -3305 -38 -413 -45 -550 -45 -877 l-1 -327
35 -37 c66 -69 140 -82 227 -39 98 49 97 45 133 660 111 1878 424 3282 994
4460 261 538 506 924 889 1400 53 66 109 143 124 170 74 136 -8 285 -158 285
-42 0 -65 -6 -90 -23z"/>
</g>
</svg>
